# xmcd
#
# Track frame offsets:
#	150
#	39974
#	61249
#	79009
#	94487
#	110842
#	126921
#	143553
#	156436
#	172283
#	188847
#
# Disc length: 2758 seconds
#
# Revision: 0
# Processed by: cddbd v1.5.1PL0 Copyright (c) Steve Scherf et al.
# Submitted via: dBpowerAMP V4.0
#
DISCID=9b0ac40b
DTITLE=Lisandro Meza - Exitos Mas
DYEAR=1900
DGENRE=
TTITLE0=Mosaico Fiestero
TTITLE1=El amor y el Envidia
TTITLE2=Dos Caminos
TTITLE3=Dia
TTITLE4=Fantasia
TTITLE5=Julio abre el Ojo
TTITLE6=Invasion Espanola
TTITLE7=Ya tu no Ya
TTITLE8=Tu por alla
TTITLE9=Que Llueva
TTITLE10=El Journalero
EXTD=
EXTT0=
EXTT1=
EXTT2=
EXTT3=
EXTT4=
EXTT5=
EXTT6=
EXTT7=
EXTT8=
EXTT9=
EXTT10=
PLAYORDER=
